<?xml version="1.0" encoding="utf-8"?>
<!-- Generator: Adobe Illustrator 15.1.0, SVG Export Plug-In  -->
<!DOCTYPE svg PUBLIC "-//W3C//DTD SVG 1.1//EN" "http://www.w3.org/Graphics/SVG/1.1/DTD/svg11.dtd" [
	<!ENTITY ns_flows "http://ns.adobe.com/Flows/1.0/">
]>
<svg version="1.1"
	 xmlns="http://www.w3.org/2000/svg" xmlns:xlink="http://www.w3.org/1999/xlink" xmlns:a="http://ns.adobe.com/AdobeSVGViewerExtensions/3.0/"
	 x="0px" y="0px" width="261px" height="207px" viewBox="-11.473 -8.875 261 207" enable-background="new -11.473 -8.875 261 207"
	 xml:space="preserve">
<defs>
</defs>
<path d="M193.819,187.391c-15.813,0-22.629-4.183-26.291-6.431l-0.545-0.366l-24.198-29.605l0.773-0.633l24.145,29.54l0.348,0.213
	c3.578,2.195,10.239,6.282,25.769,6.282c24.155,0,46.992-20.865,46.992-42.934c0-22.956-18.553-30.097-18.74-30.166l-0.962-0.356
	l0.874-0.538c0.158-0.098,15.821-9.914,15.821-25.447c0-7.421-2.842-15.432-7.239-20.408L215.13,50.179l0.814-0.466l15.353,16.146
	c4.568,5.168,7.508,13.438,7.508,21.09c0,14.042-12.275,23.521-15.521,25.779c3.769,1.759,18.527,9.976,18.527,30.729
	C241.812,166.041,218.488,187.391,193.819,187.391z"/>
<path d="M162.882,45.662h-1c0-7.101-2.887-14.968-6.714-18.299l-16.507-15.824l0.664-0.651l16.508,15.729
	C159.848,30.11,162.882,38.301,162.882,45.662z"/>
<path d="M134.029,93.785l-0.5-0.865c0.164-0.096,16.588-9.762,24.325-27.773l0.918,0.395
	C150.901,83.865,134.197,93.688,134.029,93.785z"/>
<polygon points="100.257,65.808 80.566,65.808 65.977,49.328 66.834,48.514 81.042,64.808 100.257,64.808 "/>
<polygon points="67.478,103.651 66.478,103.651 66.478,42.017 49.89,22.107 50.844,21.399 67.478,41.628 "/>
<polygon points="67.478,157.182 32.928,157.182 18.485,141.227 19.309,140.625 33.397,156.182 66.478,156.182 66.478,123.671 
	67.478,125.218 "/>
<polygon points="12.601,92.457 0.62,79.408 1.38,78.759 12.845,91.201 19.253,87.859 19.716,88.746 "/>
<path d="M177.956,88.447l-12.753-13.879l0.764-0.646l12.094,13.102c3.794-3.19,9.561-6.33,14.356-6.021
	c1.74,0.11,3.059,0.666,3.917,1.652l-0.754,0.656c-0.677-0.777-1.762-1.218-3.226-1.31c-4.208-0.275-9.94,2.472-14.016,6.105
	L177.956,88.447z"/>
<path d="M197.051,137.146h-1c0-3.738-3.764-6.639-7.861-6.639h-0.234l-14.864-16.636l0.768-0.641l14.567,16.279
	C193.019,129.618,197.051,132.848,197.051,137.146z"/>
<polygon points="160.241,132.287 159.241,132.287 159.241,107.014 146.15,93.123 146.879,92.437 160.241,106.618 "/>
<polygon points="155.498,137.646 77.711,137.646 63.121,121.164 63.785,120.535 78.187,136.646 155.498,136.646 "/>
<path d="M50.844,141.227H18.485v-71.53L0,79.767V48.932l50.844-27.532V141.227z M20.485,139.227h28.359V24.757L2,50.123V76.4
	l18.485-10.07V139.227z"/>
<path d="M147.178,121.164H63.121v-1c0-24.604,16.477-38.591,32.411-52.118l0.403-0.342c15.415-13.089,23.242-21.353,23.242-30.197
	c0-3.674-4.014-10.422-10.572-10.422c-9.2,0-13.126,6.354-13.126,21.244v1H65.977v-1C65.977,18.066,82.082,0,109.058,0
	c24.329,0,40.675,14.771,40.675,36.756c0,20.557-16.318,34.99-33.595,50.271c-1.965,1.737-3.979,3.52-5.987,5.325h37.027V121.164z
	 M65.131,119.164h80.047V94.352h-40.206l1.91-1.739c2.646-2.41,5.333-4.786,7.931-7.084c16.93-14.973,32.92-29.116,32.92-48.772
	C147.732,12.747,128.309,2,109.058,2C83.631,2,68.332,18.921,67.983,47.328h25.501c0.111-10.572,2.126-22.244,15.121-22.244
	c7.558,0,12.572,7.477,12.572,12.422c0,9.626-8.064,18.235-23.947,31.722l-0.404,0.343C81.46,82.615,65.578,96.098,65.131,119.164z"
	/>
<path d="M186.904,172.864c-17.938,0-35.162-11.586-44.462-21.508l-0.632-0.674l18.29-20.072l0.74,0.698
	c10.037,9.465,15.679,12.503,23.215,12.503c6.762,0,14.323-6.192,14.323-14.48c0-12.215-13.228-14.779-24.323-14.779h-1V92.113h1
	c15.363,0,21.919-4.42,21.919-14.78c0-5.965-5.615-10.819-12.518-10.819c-5.747,0-11.428,2.765-16.884,8.219l-0.758,0.758
	l-17.437-20.042l0.744-0.657c15.107-13.333,22.783-16.783,37.331-16.783c14.823,0,39.91,8.252,39.91,39.181
	c0,12.57-10.115,21.871-13.735,24.798c4.107,2.452,15.703,11.035,15.703,29.75C228.332,148.91,212.571,172.864,186.904,172.864z
	 M144.538,150.658c9.16,9.474,25.468,20.206,42.366,20.206c24.428,0,39.428-22.789,39.428-39.127
	c0-21.346-15.779-28.623-15.938-28.694l-1.603-0.714l1.432-1.016c0.142-0.1,14.142-10.186,14.142-24.124
	c0-29.35-23.83-37.181-37.91-37.181c-12.749,0-20.105,2.381-35.261,15.628l14.732,16.934c5.615-5.347,11.509-8.057,17.531-8.057
	c8.005,0,14.518,5.75,14.518,12.819c0,14.557-12.788,16.654-22.919,16.774v18.451c16.341,0.231,25.323,6.167,25.323,16.772
	c0,9.712-8.603,16.48-16.323,16.48c-7.843,0-13.941-3.136-23.845-12.353L144.538,150.658z"/>
</svg>
